<svg xmlns="http://www.w3.org/2000/svg" xmlns:xlink="http://www.w3.org/1999/xlink" width="16" height="16" viewBox="0 0 16 16">
    <defs>
        <path id="a" fill="#d1d1d1" d="M2 2v12h11.955L14 2H2zm5.999 3.79a2.211 2.211 0 1 1 0 4.422 2.211 2.211 0 0 1 0-4.423zm4.443 6.218a.465.465 0 0 1-.453.476H4.053a.466.466 0 0 1-.453-.476V6.8h.932a4.006 4.006 0 0 0-.137 1.033c0 2.109 1.623 3.817 3.626 3.817s3.626-1.708 3.626-3.817c0-.18-.014-.357-.038-.53a4.006 4.006 0 0 0-.1-.503h.933v5.208zm.253-6.949c0 .24-.195.436-.435.436h-1.025a.435.435 0 0 1-.435-.436V4.035c0-.24.193-.435.435-.435h1.025c.24 0 .435.195.435.435v1.024z"/>
    </defs>
    <g fill-rule="evenodd">
        <mask id="b" fill="#fff">
            <use xlink:href="#a"/>
        </mask>
        <use fill="#181717" fill-rule="nonzero" xlink:href="#a"/>
        <g fill="#181717" mask="url(#b)">
            <path d="M0 0h16v16H0z"/>
        </g>
    </g>
</svg>
