<svg xmlns="http://www.w3.org/2000/svg" width="83" height="14" viewBox="0 0 83 14">
    <g fill="none" fill-rule="evenodd">
        <path fill="#FFF" d="M-646-2364H794V123H-646z"/>
        <g fill-rule="nonzero">
            <path fill="#000" fill-opacity=".9" d="M-646-292H794v415H-646z"/>
            <g fill="#616161" opacity=".7">
                <path d="M37.075.55c-4.592 0-5.925 3.504-5.925 6.307 0 2.803 1.284 6.306 5.925 6.306 4.59 0 5.924-3.503 5.924-6.306S41.715.55 37.075.55zm0 10.26c-1.827 0-2.37-2.201-2.37-3.953 0-1.752.494-3.954 2.37-3.954 1.826 0 2.37 2.202 2.37 3.954 0 1.752-.495 3.954-2.37 3.954zM59.438.55c-4.591 0-5.924 3.504-5.924 6.307 0 2.803 1.283 6.306 5.924 6.306 4.59 0 5.924-3.503 5.924-6.306C65.312 4.054 64.029.55 59.438.55zm0 10.26c-1.827 0-2.37-2.201-2.37-3.953 0-1.752.494-3.954 2.37-3.954 1.826 0 2.37 2.202 2.37 3.954-.05 1.752-.544 3.954-2.37 3.954zM28.929 9.91V.95H25.72v4.705h-3.85V.95H18.66c-.297.1-.84.5-.84 1.401 0 .801.692 1.202.84 1.352V12.863h3.209V8.158h3.85V9.56c0 .95 0 3.553 2.863 3.553 0 0 1.185.05 1.975-.65l-.494-1.602c-.049 0-1.135.1-1.135-.951zM47.442 9.81c-.346-1.452 1.332-1.652 3.01-2.653 1.68-1 1.976-2.652 1.729-3.804C51.786 1.602 50.206.3 47.787.5c-2.172.2-3.258 1.352-3.258 1.352l.642 1.752c2.37-1.001 3.8-1.051 4.097.15.247 1.1-.938 1.501-2.419 2.202-2.814 1.301-2.863 3.003-2.567 4.454.494 2.503 2.715 2.803 4.344 2.803 2.765 0 4.246-1.451 4.246-1.451L52.23 9.96c-.099-.05-4.344 1.551-4.788-.15zM16.735 12.462l-.493-1.601s-1.136.1-1.136-.951V.95h-3.209L8.54 8.258 5.628.951H2.567c-.494.15-.889.8-.938 1.351 0 .701.296 1.151.79 1.402 0 0-.099 2.652-.395 5.305-.247 2.152-1.876 2.052-1.876 2.052L0 12.663c.395.35 1.185.55 1.728.5 1.728-.15 2.666-.8 3.06-3.253.198-1.101.297-3.103.297-3.103l2.517 6.056h1.679l2.666-5.806s.148 1.852.197 2.553c.05.7.198 3.553 2.666 3.553-.05 0 1.234-.05 1.925-.7zM71.138 1.952V.951h-1.926c-.345.15-.543.45-.543.85 0 .351.247.702.543.852v5.505h1.975V3.403c1.037-1.1 2.814-.65 2.814-.65s.197-1.201.345-1.802c-1.974-.6-3.208 1.001-3.208 1.001zM82.59 6.456s-.74.1-.74-.55V.9h-1.974v4.955s-.445.5-1.284.5c-.494 0-.74-.25-.889-.45-.049-.1-.098-.25-.098-.3V.95H75.63s-.592.25-.592.9c0 .501.296.802.592.902v2.752c0 .15 0 .751.346 1.302.296.55.888 1.05 2.024 1.05 1.382 0 1.826-.5 2.221-.75.148.4.691.901 1.382.901.84 0 1.383-.55 1.383-.55l-.395-1.002z"/>
            </g>
        </g>
    </g>
</svg>
