<svg viewBox="0 0 63 12" xmlns="http://www.w3.org/2000/svg"><g fill="#616161"><path d="m .08 5.39 1.09.61c.76.44 1.52.87 2.27 1.33a.55.55 0 0 0  .65 0l7.23-4.23.33-.18a6.18 6.18 0 0 1 -8.07 8.49c-2.28-1.06-3.98-3.97-3.5-6.02z"/><path d="m15.7 10.46v-.59h46.8.3a.43.43 0 0 1  .2.28.39.39 0 0 1 -.2.28.94.94 0 0 1 -.37 0h-46.73z"/><path d="m52.25 1.65c-.46.24-.35.65-.36 1s0 1 0 1.43c0 .26.06.37.34.36h2.21c0-.82 0-1.6 0-2.38 0-.14-.18-.27-.31-.45h2c-.45.24-.35.64-.35 1v4.33c0 .39-.14.85.44 1.05l-.09.07h-2c .43-.32.29-.77.3-1.18 0-.67 0-1.34 0-2h-2.53v2.65c0 .18.2.34.33.55h-2c .51-.29.35-.77.35-1.19 0-1.45 0-2.91 0-4.36 0-.34 0-.67-.36-.88z"/><path d="m38.51 8c .46-.21.38-.6.38-1q0-2.24 0-4.48c0-.34.05-.7-.33-.94h4.7v1.42c-.15-.12-.32-.18-.34-.28a1 1 0 0 0 -1.21-.72c-.33 0-.66 0-1 0s-.5.13-.5.47 0 .82 0 1.24c0 .24.11.3.32.31a14.79 14.79 0 0 1 1.62.12 1.57 1.57 0 0 1  1.45 1.72 4.38 4.38 0 0 1 -.07.88 1.44 1.44 0 0 1 -1.23 1.26c-1.23.14-2.48.15-3.72.22zm1.71-2.18v1.27a.43.43 0 0 0 0 .19c.07.14.13.33.25.39a1.15 1.15 0 0 0 1.58-.67 4.26 4.26 0 0 0  .14-1.17c0-1.17-.54-1.65-1.69-1.56-.21 0-.29.1-.28.31.01.42 0 .86 0 1.27z"/><path d="m21.62 1.64a3.07 3.07 0 0 1  .31 0h4c .29 0 .39.09.37.38s0 .52 0 .77c0 .07-.08.14-.12.21s-.18-.12-.18-.17c-.18-.86-.81-.91-1.5-.87-.24 0-.48 0-.72 0s-.51.16-.5.51 0 .72 0 1.08.09.43.41.43a9.81 9.81 0 0 1 1.55.11 1.55 1.55 0 0 1  1.43 1.73 3.89 3.89 0 0 1 -.15 1.18 1.42 1.42 0 0 1 -1.29 1c-1.18.08-2.37.08-3.56.11 0 0 0 0-.07-.08.44-.26.35-.71.35-1.12 0-1.43 0-2.86 0-4.29 0-.35.08-.74-.41-.92zm1.66 4.24v1.35a.66.66 0 0 0  .25.46 1.16 1.16 0 0 0  1.52-.57 4.08 4.08 0 0 0  .18-1.24c0-1.18-.53-1.65-1.68-1.57-.21 0-.29.09-.29.3.02.39.02.85.02 1.27z"/><path d="m33 8.1c.41-.3.3-.72.3-1.1q0-2.2 0-4.4c0-.33.1-.71-.39-.9.12-.05.17-.08.21-.08 1.12 0 2.25 0 3.37.08a1.29 1.29 0 0 1 1.29 1.2 3.78 3.78 0 0 1 -.06 1.41 1.51 1.51 0 0 1 -1.4 1.13c-.52.07-1.05.08-1.62.12v2.07c0 .15.19.29.32.47zm1.72-2.94h.51a1 1 0 0 0 1.11-.9 5.24 5.24 0 0 0  .08-1.07 1.13 1.13 0 0 0 -1.27-1.19c-.34 0-.48.15-.48.49v2.39a2.47 2.47 0 0 0  .06.28z"/><path d="m49.74 8.13c-.39 0-.8 0-1.2 0-.21 0-.3-.06-.36-.28-.18-.61-.38-1.21-.56-1.85a.33.33 0 0 0 -.38-.28c-.51 0-1 0-1.52 0a .32.32 0 0 0 -.37.29c-.14.58-.32 1.16-.45 1.75-.06.25-.12.4-.41.36a6.49 6.49 0 0 0 -.7 0 .61.61 0 0 1  0-.15c.73-1.75 1.46-3.5 2.18-5.25.21-.51.16-.69-.25-1.08h1.75zm-4.15-2.82h1.8l-.84-2.54h-.1z"/><path d="m27.48 8.1c.48-.26.36-.71.36-1.1q0-2.18 0-4.37c0-.36.1-.77-.36-1h4.4v1.29l-.07.08c-.08-.08-.22-.16-.25-.26a1 1 0 0 0 -1.15-.74 7.43 7.43 0 0 0 -.91 0 .47.47 0 0 0 -.32.32v2c0 .22.13.25.3.24l1.68-.07v.51l-1.62-.1c-.25 0-.37.06-.36.34v1.89c0 .35.15.56.51.58a8.24 8.24 0 0 0 1 0c .64 0 .78-.17.92-.81.06-.25.13-.38.42-.28v1.48z"/><path d="m20.62 3.16c-.1-.09-.26-.16-.29-.26a1.37 1.37 0 0 0 -1.3-1 1.44 1.44 0 0 0 -1.53.84 2.72 2.72 0 0 0 -.27 1 12.53 12.53 0 0 0  .06 2.3 1.81 1.81 0 0 0  2.35 1.62c.37-.07.72-.2 1.11-.32l.17.31-.3.18a4.25 4.25 0 0 1 -2.74.33 2.5 2.5 0 0 1 -2.1-2.16 5.43 5.43 0 0 1  .09-2.45 2.49 2.49 0 0 1  2.38-2 13.16 13.16 0 0 1  2.14.14c.24 0 .37.15.35.44s0 .61 0 .92z"/><path d="m .35 3.95c1 .6 2.06 1.19 3.09 1.81a.55.55 0 0 0  .65 0q3.23-1.91 6.47-3.76l.4-.23.4.53c-.12.09-.2.16-.29.22l-7.07 4.34a.38.38 0 0 1 -.48 0c-1.05-.7-2.12-1.39-3.18-2.08-.34-.2-.29-.43.01-.83z"/><path d="m10.48 1.24-3 1.84c-1.12.73-2.28 1.43-3.43 2.16a.46.46 0 0 1 -.6 0c-.83-.58-1.67-1.13-2.51-1.68-.49-.32-.5-.39-.09-.9.85.5 1.71 1 2.56 1.5a.58.58 0 0 0  .69 0c1.77-1.05 3.57-2.09 5.35-3.16.55-.29.55-.29 1.03.24z"/><path d="m59 8.1h-2.11c.57-.32.43-.76.43-1.17 0-1.47 0-2.93 0-4.4a4.48 4.48 0 0 0 -.19-.88h2c-.56.29-.47.73-.47 1.14v4.17c0 .4-.11.84.44 1.06z"/><path d="m63 8.13c-.7 0-1.32 0-1.94 0a .35.35 0 0 1 -.25-.13l-1.87-2.79-.06-.11c.62-1 1.27-1.89 1.81-2.87.27-.5.55-.73 1.1-.63a2.61 2.61 0 0 0  .5 0c-.72.84-1.43 1.68-2.16 2.51a.38.38 0 0 0 0 .57l2.51 3z"/><path d="m1.16 2.06.44-.55c.61.35 1.22.69 1.81 1.06a.57.57 0 0 0  .68 0c1.36-.8 2.74-1.57 4.1-2.39.47-.27.61-.25 1.07.17l-.26.22c-1.63 1-3.27 2-4.9 3.09a.46.46 0 0 1 -.6 0c-.79-.55-1.5-1.05-2.34-1.6z"/></g></svg>