<svg height="15" viewBox="0 0 24 15" width="24" xmlns="http://www.w3.org/2000/svg"><g fill="none" opacity=".597373" transform="translate(-31 -275)"><path d="m44.0651667 288.994313c.5573333 0 .7865-.378854.7791666-.850564-.0293333-1.779127.6526667-2.737404 1.8883334-1.489415 1.364 1.381702 1.6426666 2.339979 3.3018333 2.339979h2.9351667c.7388333 0 1.0303333-.241427 1.0303333-.62028 0-.802279-1.3035-2.217409-2.4053333-3.253686-1.5473334-1.45413-1.617-1.489415-.286-3.238828 1.65-2.170981 3.8115-4.952956 1.9011666-4.952956h-3.6501666c-.7095 0-.759.402997-1.0101667 1.006563-.913 2.178409-2.6455 5.001241-3.3055 4.570388-.6911667-.451282-.374-2.234123-.3208333-4.884243.0146666-.700136.011-1.181132-1.0468334-1.429987-.5756666-.13557-1.1385-.191284-1.6555-.191284-2.0845 0-3.5236666.885849-2.7078333 1.039991 1.4391667.27114 1.3035 3.428255.9661667 4.791386-.5848334 2.373407-2.783-1.879412-3.6996667-3.996536-.22-.51071-.2841667-.906278-1.0743333-.906278h-2.9828334c-.4528333 0-.7223333.14857-.7223333.479139 0 .558995 2.7115 6.239944 5.302 9.072062 2.5281667 2.761547 5.027 2.514549 6.7631667 2.514549z" fill="#a0a4a5" fill-rule="evenodd"/><path d="m44.0651667 289.194313c-.108165 0-.1895046.000637-.4059903.002833-2.9041271.029455-4.5476936-.444677-6.5047527-2.582396-2.1603445-2.361841-5.3544237-8.242204-5.3544237-9.207048 0-.454153.3554964-.679139.9223333-.679139h2.9828334c.6541844 0 .9209179.217004 1.1520109.770846.0024464.005863.0812321.198799.1058574.255965.5808402 1.341503 1.3231829 2.76383 1.9534318 3.645365.3727549.521376.696779.839883.9284319.914912.1860439.060256.3251407-.065685.4401244-.532319.4743655-1.916864.2198301-4.352957-.8091537-4.546818-.3088475-.058353-.4853023-.256805-.3556924-.514043.0793307-.157448.2810811-.305236.5748763-.441673.6234306-.289517 1.5530267-.480798 2.52578-.480798.5633595 0 1.138337.06402 1.7012997.196599 1.0149888.238775 1.2222129.61574 1.2009934 1.628684-.009529.474979-.0263845.915845-.0560127 1.538964-.113739 2.392084-.0789384 2.935375.2862144 3.173793.1576275.102901.6663261-.346509 1.283272-1.251871.6083229-.892709 1.2661972-2.125432 1.7282499-3.227883.034067-.081865.1367248-.345377.1537984-.387112.216997-.530443.4682258-.742611 1.0410183-.742611h3.6501666c.8944447 0 1.1376955.559827.7989186 1.440699-.2466946.641444-.7708019 1.462917-1.6248623 2.618664-.1085711.146922-.2232735.300403-.350342.469008-.1465359.194436-.2862917.378426-.5657119.745685-.8023143 1.05453-.9662837 1.361414-.8806304 1.670736.0728078.262933.2652105.474994 1.1444822 1.301303 1.5052856 1.415724 2.4683125 2.628018 2.4683125 3.399375 0 .537434-.433877.82028-1.2303333.82028h-2.9351667c-.9054129 0-1.4670242-.257305-2.0641872-.867305-.1395518-.142552-1.0280232-1.175647-1.3797674-1.531956-.5217752-.526979-.8951834-.618048-1.1384966-.386345-.2667295.254003-.4217523.882028-.4077396 1.731933.0097143.624867-.3419803 1.053673-.9791425 1.053673z" stroke="#181616" stroke-width=".4"/></g></svg>